<?xml version="1.0" encoding="utf-8"?>
<!-- Generator: Adobe Illustrator 26.1.0, SVG Export Plug-In . SVG Version: 6.00 Build 0)  -->
<svg version="1.1" id="Layer_1" xmlns="http://www.w3.org/2000/svg" xmlns:xlink="http://www.w3.org/1999/xlink" x="0px" y="0px"
	 viewBox="0 0 775.39 778.24" style="enable-background:new 0 0 775.39 778.24;" xml:space="preserve">
<style type="text/css">
	.st0{fill:#FFFFFF;}
</style>
<g>
	<path class="st0" d="M714.69,389.12c0-28.77,23.41-52.18,52.18-52.18v-12c-33.42,0-60.94,25.68-63.9,58.33h-95.85v-27.6h-12v27.6
		h-70.67l23.36-23.36l-8.48-8.49l-31.85,31.85H264.7l-31.85-31.85l-8.49,8.49l23.36,23.36h-69.79v-27.6h-12v27.6H72.41
		c-2.96-32.66-30.48-58.33-63.9-58.33v12c28.77,0,52.18,23.41,52.18,52.18S37.29,441.3,8.51,441.3v12
		c33.31,0,60.77-25.51,63.88-58.02h93.54v25.44h12v-25.44h68.5l-21.19,21.19l8.49,8.48l29.68-29.68h247.11l29.68,29.68l8.48-8.48
		l-21.19-21.19h67.62v25.44h12v-25.44h95.88c3.11,32.51,30.57,58.02,63.88,58.02v-12C738.1,441.3,714.69,417.89,714.69,389.12z"/>
	<path class="st0" d="M387.69,62.12c-28.77,0-52.18-23.41-52.18-52.18h-12c0,33.42,25.68,60.94,58.33,63.9v95.85h-27.6v12h27.6
		v70.67l-23.36-23.36l-8.49,8.48l31.85,31.85v242.78L350,543.96l8.49,8.49l23.36-23.36v69.79h-27.6v12h27.6v93.52
		c-32.66,2.96-58.33,30.48-58.33,63.9h12c0-28.77,23.41-52.18,52.18-52.18s52.18,23.41,52.18,52.18h12
		c0-33.31-25.51-60.77-58.02-63.88v-93.54h25.44v-12h-25.44v-68.5l21.19,21.19l8.48-8.49l-29.68-29.68V266.29l29.68-29.68
		l-8.48-8.48l-21.19,21.19v-67.62h25.44v-12h-25.44V73.82c32.51-3.11,58.02-30.57,58.02-63.88h-12
		C439.87,38.71,416.46,62.12,387.69,62.12z"/>
	<path class="st0" d="M156.47,157.9c-20.34,20.34-53.45,20.34-73.79,0l-8.49,8.49c23.63,23.63,61.24,24.93,86.43,3.94l67.78,67.78
		l-19.52,19.52l8.49,8.49l19.52-19.52l49.97,49.97l-33.04,0l0,12l45.04,0l171.67,171.67v45.04h12v-33.04l49.35,49.35l-19.52,19.52
		l8.49,8.49l19.52-19.52l66.13,66.13c-21,25.19-19.69,62.8,3.94,86.43l8.49-8.49c-20.34-20.34-20.34-53.45,0-73.79
		s53.45-20.34,73.79,0l8.49-8.49c-23.55-23.55-61.01-24.93-86.2-4.14l-66.15-66.15l17.99-17.99l-8.49-8.49l-17.99,17.99
		l-48.44-48.44h29.97l0-12l-41.97,0L305.19,297.91l0-41.97h-12l0,29.97l-47.82-47.82l17.99-17.99l-8.49-8.49l-17.99,17.99
		l-67.79-67.79c20.79-25.19,19.42-62.64-4.14-86.2l-8.49,8.49C176.81,104.45,176.81,137.55,156.47,157.9z"/>
	<path class="st0" d="M618.92,157.9c-20.34-20.34-20.34-53.45,0-73.79l-8.49-8.49c-23.63,23.63-24.93,61.24-3.94,86.43l-67.78,67.78
		l-19.52-19.52l-8.49,8.49l19.52,19.52l-49.97,49.97l0-33.04l-12,0l0,45.04L296.59,471.96h-45.04v12h33.04l-49.35,49.35
		l-19.52-19.52l-8.49,8.49l19.52,19.52l-66.13,66.13c-25.19-21-62.8-19.69-86.43,3.94l8.49,8.49c20.34-20.34,53.45-20.34,73.79,0
		s20.34,53.45,0,73.79l8.49,8.49c23.55-23.55,24.93-61.01,4.14-86.2l66.15-66.15l17.99,17.99l8.49-8.49l-17.99-17.99l48.44-48.44
		v29.97l12,0l0-41.97L478.9,306.62l41.97,0v-12l-29.97,0l47.82-47.82l17.99,17.99l8.49-8.49l-17.99-17.99L615,170.52
		c25.19,20.79,62.64,19.42,86.2-4.14l-8.49-8.49C672.36,178.24,639.26,178.24,618.92,157.9z"/>
	<g>
		<path class="st0" d="M387.69,465.69c-42.22,0-76.57-34.35-76.57-76.57s34.35-76.57,76.57-76.57s76.57,34.35,76.57,76.57
			S429.92,465.69,387.69,465.69z M387.69,324.54c-35.61,0-64.57,28.97-64.57,64.57s28.97,64.57,64.57,64.57s64.57-28.97,64.57-64.57
			S423.3,324.54,387.69,324.54z"/>
	</g>
	<circle class="st0" cx="387.69" cy="389.12" r="8.57"/>
</g>
</svg>
