<?xml version="1.0" encoding="utf-8"?>
<!-- Generator: Adobe Illustrator 26.5.2, SVG Export Plug-In . SVG Version: 6.00 Build 0)  -->
<svg version="1.1" id="Camada_1" xmlns="http://www.w3.org/2000/svg" xmlns:xlink="http://www.w3.org/1999/xlink" x="0px" y="0px"
	 viewBox="0 0 700 700" style="enable-background:new 0 0 700 700;" xml:space="preserve">
<style type="text/css">
	.st0{fill:#FFFFFF;}
</style>
<path class="st0" d="M355.9,83.5c-3,0.1-5.8,1.3-7.8,3.4c-2,2.1-3.2,5-3.1,7.9v224.7l-91.5,160.7l-4.8,8.4l-68.4-120.2
	c-2.1-3.6-6-5.8-10.2-5.6c-3.8,0.2-7.3,2.3-9.2,5.6L29.1,599.9c-1.9,3.4-1.9,7.6,0.1,11.1c2,3.4,5.6,5.5,9.6,5.5h622.5h0
	c3.9,0,7.6-2.1,9.6-5.5c2-3.4,2-7.6,0.1-11.1L539.1,368.5c-2.1-3.6-6-5.8-10.2-5.6c-3.8,0.1-7.3,2.3-9.2,5.6l-62.4,109.6
	l-90.2-158.5v-84.4H429v10.5v0c0,6.1,5,11.1,11.2,11.1h95.4h0c3.7,0,7.1-1.8,9.2-4.9c2.1-3,2.5-6.9,1.2-10.3l-17.8-45.2l17.8-45.2
	c1.3-3.4,0.9-7.3-1.2-10.3c-2.1-3-5.5-4.9-9.2-4.9h-84.4v-10.6c0-6.1-5-11-11.1-11.1h-73V94.9c0.1-3-1.1-5.9-3.2-8
	C361.8,84.7,358.9,83.5,355.9,83.5L355.9,83.5z M367.1,136.6H429V213h-61.9V136.6z M451.2,158.2h68l-13.4,34c-1,2.6-1,5.6,0,8.2
	l13.4,34.1h-68V158.2z M356.1,345.1l66,116l-26.9,28.1l-29.9-31.3v0c-2.1-2.2-4.9-3.4-7.9-3.4c-3.1,0-6,1.2-8.1,3.4l-30,31.3
	l-28.4-29.7L356.1,345.1z M170.5,396.5l65.4,114.7l-47.3,83.1H58L170.5,396.5z M529.4,396.5L642,594.2H523.5l-53.3-93.7L529.4,396.5
	z M279.4,479.6l31.8,33.3v0c2.1,2.2,5,3.4,8,3.4s5.9-1.2,8-3.4l30-31.3l29.9,31.3c2.1,2.2,5,3.4,8,3.4c3,0,5.9-1.2,8-3.4l30.3-31.8
	l64.4,113H214.2L279.4,479.6z"/>
</svg>
