<?xml version="1.0" encoding="utf-8"?>
<!-- Generator: Adobe Illustrator 26.1.0, SVG Export Plug-In . SVG Version: 6.00 Build 0)  -->
<svg version="1.1" id="Layer_1" xmlns="http://www.w3.org/2000/svg" xmlns:xlink="http://www.w3.org/1999/xlink" x="0px" y="0px"
	 viewBox="0 0 532.6 700" style="enable-background:new 0 0 532.6 700;" xml:space="preserve">
<style type="text/css">
	.st0{fill:#F20000;}
</style>
<g>
	<path class="st0" d="M14.3,40.2l6.1,494.3l249.8,33L521,689.2l-52.2-188.3l52.3-486.1L14.3,40.2z M218.9,162.1
		c0-4.1,2.6-6.3,7.8-6.3h35.7c5.2,0,7.8,2.2,7.8,6.3v185c0,4.4-2.6,6.7-7.8,6.7h-35.7c-5.2,0-7.8-2.2-7.8-6.7V162.1z M244.5,419.7
		c-17.4,0-29.2-10.4-29.2-25.2c0-14.8,11.8-24.8,29.2-24.8c17.4,0,29.6,10,29.6,24.8C274.1,409.3,261.9,419.7,244.5,419.7z"/>
</g>
</svg>
